<?xml version="1.0" encoding="UTF-8"?>
<!DOCTYPE svg PUBLIC "-//W3C//DTD SVG 1.1//EN" "http://www.w3.org/Graphics/SVG/1.1/DTD/svg11.dtd">
<!-- Creator: CorelDRAW X7 -->
<svg xmlns="http://www.w3.org/2000/svg" xml:space="preserve" width="5.33333in" height="4.90523in" version="1.1" style="shape-rendering:geometricPrecision; text-rendering:geometricPrecision; image-rendering:optimizeQuality; fill-rule:evenodd; clip-rule:evenodd"
viewBox="0 0 3673 3378"
 xmlns:xlink="http://www.w3.org/1999/xlink">
 <defs>
  <style type="text/css">
   <![CDATA[
    .fil1 {fill:#FEFEFE}
    .fil0 {fill:#ED3237}
   ]]>
  </style>
 </defs>
 <g id="Layer_x0020_1">
  <metadata id="CorelCorpID_0Corel-Layer"/>
  <path class="fil0" d="M2689 0l-1705 0c-54,0 -97,43 -97,96l0 1196c0,53 43,96 97,96l709 0 144 144 143 -144 709 0c54,0 97,-43 97,-96l0 -1196c0,-53 -43,-96 -97,-96l0 0z"/>
  <path class="fil1" d="M1678 909c-25,-31 -70,-36 -101,-11 -30,25 -35,70 -10,101 48,60 119,92 188,107l0 5c0,39 32,72 72,72 39,0 71,-32 72,-72 146,-20 211,-117 222,-203 15,-122 -65,-240 -194,-285 -10,-4 -19,-7 -28,-10l0 -204c21,8 36,20 44,31 22,32 67,40 100,17 32,-23 40,-67 17,-100 -31,-45 -88,-82 -161,-95l0 -10c0,-40 -33,-72 -72,-72 -40,0 -72,32 -72,72l0 15c-9,2 -18,4 -27,7 -85,26 -150,109 -157,202 -7,92 42,172 131,214 12,5 30,13 53,22l0 246c-31,-11 -58,-27 -77,-49l0 0zm300 -20c-4,38 -33,65 -79,76l0 -199c61,30 84,83 79,123l0 0zm-264 -402c2,-29 19,-56 41,-69l0 138c-29,-16 -43,-40 -41,-69z"/>
  <path class="fil1" d="M3375 2334l-20 0c86,-87 139,-206 139,-337 0,-265 -216,-481 -481,-481 -265,0 -481,216 -481,481 0,131 53,250 139,337l-20 0c-164,0 -298,133 -298,298l0 65c-45,-28 -98,-44 -155,-44l-19 0c85,-86 138,-205 138,-336 0,-265 -215,-481 -480,-481 -265,0 -481,216 -481,481 0,131 53,250 138,336l-19 0c-57,0 -110,16 -155,44l0 -65c0,-165 -134,-298 -298,-298l-20 0c86,-87 139,-206 139,-337 0,-265 -216,-481 -481,-481 -265,0 -481,216 -481,481 0,131 53,250 139,337l-20 0c-164,0 -298,133 -298,298l0 355c0,39 32,71 72,71l1105 0 0 249c0,39 32,71 71,71l1177 0c39,0 72,-32 72,-71l0 -249 1104 0c40,0 72,-32 72,-71l0 -355c0,-165 -134,-298 -298,-298zm-699 -337c0,-186 151,-337 337,-337 186,0 337,151 337,337 0,185 -151,337 -337,337 -186,0 -337,-152 -337,-337zm-1177 320c0,-186 152,-337 338,-337 185,0 337,151 337,337 0,185 -152,336 -337,336 -186,0 -338,-151 -338,-336zm-1176 -320c0,-186 151,-337 337,-337 186,0 337,151 337,337 0,185 -151,337 -337,337 -186,0 -337,-152 -337,-337zm-180 635c0,-86 70,-155 155,-155l724 0c85,0 155,69 155,155l0 283 -1034 0 0 -283zm2210 603l-1033 0 0 -283c0,-86 69,-155 155,-155l723 0c86,0 155,69 155,155l0 283zm1177 -320l-1033 0 0 -283c0,-86 69,-155 154,-155l724 0c85,0 155,69 155,155l0 283z"/>
 </g>
</svg>
