<?xml version="1.0" encoding="UTF-8"?>
<!DOCTYPE svg PUBLIC "-//W3C//DTD SVG 1.1//EN" "http://www.w3.org/Graphics/SVG/1.1/DTD/svg11.dtd">
<!-- Creator: CorelDRAW X7 -->
<svg xmlns="http://www.w3.org/2000/svg" xml:space="preserve" width="5.33333in" height="5.33333in" version="1.1" style="shape-rendering:geometricPrecision; text-rendering:geometricPrecision; image-rendering:optimizeQuality; fill-rule:evenodd; clip-rule:evenodd"
viewBox="0 0 3658 3658"
 xmlns:xlink="http://www.w3.org/1999/xlink">
 <defs>
  <style type="text/css">
   <![CDATA[
    .fil1 {fill:#FEFEFE}
    .fil0 {fill:red}
   ]]>
  </style>
 </defs>
 <g id="Layer_x0020_1">
  <metadata id="CorelCorpID_0Corel-Layer"/>
  <circle class="fil0" cx="1322" cy="2328" r="772"/>
  <path class="fil1" d="M1425 2269c-10,-3 -18,-6 -27,-9l0 -194c19,7 33,18 40,28 22,32 67,40 99,17 33,-22 40,-67 18,-99 -31,-44 -86,-80 -157,-93l0 -8c0,-40 -32,-72 -71,-72 -40,0 -72,32 -72,72l0 13c-8,2 -16,4 -25,7 -83,25 -147,106 -153,197 -7,90 41,169 128,210 11,5 28,12 50,21l0 234c-28,-9 -54,-24 -71,-46 -25,-31 -70,-35 -101,-11 -30,25 -35,70 -10,101 46,58 115,90 182,104l0 4c0,39 32,71 72,71 39,0 70,-31 71,-70 119,-17 202,-94 216,-199 15,-119 -63,-233 -189,-278zm-206 -130c2,-26 17,-51 36,-64l0 128c-26,-16 -38,-37 -36,-64l0 0zm253 390c-4,36 -31,61 -74,72l0 -188c57,28 79,78 74,116z"/>
  <path class="fil1" d="M3587 2323l-944 0c-4,-206 -98,-488 -259,-779 -136,-246 -304,-469 -473,-631 20,-13 33,-35 33,-61l0 -390c0,-39 -32,-71 -71,-71l-98 0c3,-4 6,-8 9,-12 73,-95 156,-203 180,-288 6,-21 2,-45 -12,-63 -13,-17 -34,-28 -57,-28l-1147 0c-22,0 -43,11 -57,28 -13,18 -17,42 -11,63 24,85 106,193 179,288 3,4 6,8 10,12l-98 0c-40,0 -72,32 -72,71l0 390c0,26 14,49 35,62 -169,162 -337,385 -474,632 -165,298 -260,587 -260,792 0,372 132,709 372,949 240,239 577,371 950,371 412,0 770,-157 1011,-437l0 366c0,39 32,71 72,71l1182 0c39,0 71,-32 71,-71l0 -1193c0,-39 -32,-71 -71,-71zm-1111 540l1039 0 0 255 -1039 0 0 -255zm1039 -143l-1039 0 0 -254 1039 0 0 254zm-2542 -2428c-35,-45 -76,-100 -109,-149l915 0c-32,49 -74,104 -108,149 -33,42 -57,74 -73,99l-552 0c-17,-25 -41,-57 -73,-99zm-131 242l959 0 0 247 -959 0 0 -247zm480 2981c-694,0 -1179,-484 -1179,-1177 0,-179 90,-449 242,-723 156,-281 353,-530 541,-681 4,-3 7,-7 10,-10l482 0 -104 176c-20,34 -9,78 25,98 34,20 78,9 98,-25l82 -140 178 392c12,26 38,42 65,42 10,0 20,-2 29,-7 36,-16 52,-58 36,-94l-200 -442 81 0c3,3 6,6 10,9 188,152 385,400 541,680 149,270 237,527 241,710l-95 0c-40,0 -72,32 -72,71l0 583c-205,342 -573,538 -1011,538l0 0zm2193 0l-1039 0 0 -254 1039 0 0 254z"/>
 </g>
</svg>
