<?xml version="1.0" encoding="UTF-8"?>
<!DOCTYPE svg PUBLIC "-//W3C//DTD SVG 1.1//EN" "http://www.w3.org/Graphics/SVG/1.1/DTD/svg11.dtd">
<!-- Creator: CorelDRAW X7 -->
<svg xmlns="http://www.w3.org/2000/svg" xml:space="preserve" width="5.33333in" height="5.33333in" version="1.1" style="shape-rendering:geometricPrecision; text-rendering:geometricPrecision; image-rendering:optimizeQuality; fill-rule:evenodd; clip-rule:evenodd"
viewBox="0 0 6413 6413"
 xmlns:xlink="http://www.w3.org/1999/xlink">
 <defs>
  <style type="text/css">
   <![CDATA[
    .fil0 {fill:#FEFEFE}
    .fil1 {fill:red}
   ]]>
  </style>
 </defs>
 <g id="Layer_x0020_1">
  <metadata id="CorelCorpID_0Corel-Layer"/>
  <path class="fil0" d="M4919 581l-1273 0 0 -177c0,-223 -182,-404 -405,-404l-1068 0c-223,0 -404,181 -404,404l0 177 -1273 0c-274,0 -496,222 -496,496l0 3263c0,274 222,496 496,496l3781 0c69,0 125,-56 125,-125 0,-69 -56,-125 -125,-125l-3781 0c-135,0 -245,-110 -245,-246l0 -1513c146,140 344,226 562,226l155 0 0 376c0,70 56,126 125,126l598 0c69,0 125,-56 125,-126l0 -376 1783 0 0 376c0,70 56,126 125,126l598 0c69,0 125,-56 125,-126l0 -376 155 0c218,0 416,-86 562,-226l0 1130c0,70 56,126 125,126 70,0 126,-56 126,-126l0 -2880c0,-274 -223,-496 -496,-496l0 0zm-2899 -177c0,-85 69,-153 153,-153l1068 0c85,0 154,68 154,153l0 177 -1375 0 0 -177zm-454 2900l-348 0 0 -752 348 0 0 752zm2630 0l-347 0 0 -752 347 0 0 752zm406 -501l-155 0 0 -376c0,-69 -56,-125 -125,-125l-598 0c-69,0 -125,56 -125,125l0 376 -1783 0 0 -376c0,-69 -56,-125 -125,-125l-598 0c-69,0 -125,56 -125,125l0 376 -155 0c-310,0 -562,-252 -562,-562l0 -1164c0,-136 110,-246 245,-246l4423 0c135,0 245,110 245,246l0 1164c0,310 -252,562 -562,562l0 0z"/>
  <circle class="fil1" cx="5036" cy="5036" r="1377"/>
  <path class="fil0" d="M5231 4935c-21,-8 -41,-15 -60,-22l0 -402c50,15 84,40 101,64 40,57 118,71 174,31 57,-40 71,-118 31,-175 -59,-84 -166,-154 -306,-177l0 -26c0,-69 -56,-125 -125,-125 -69,0 -125,56 -125,125l0 36c-19,4 -39,9 -58,15 -158,47 -276,200 -289,371 -12,169 78,316 241,393 23,11 59,26 106,44l0 482c-65,-19 -124,-51 -162,-99 -44,-54 -123,-62 -177,-19 -53,44 -62,122 -19,176 92,114 226,174 358,200l0 18c0,69 56,125 125,125 69,0 125,-56 125,-125l0 -9c277,-35 398,-215 418,-375 29,-225 -119,-441 -358,-526l0 0zm-407 -266c5,-62 45,-122 97,-145l0 292c-86,-41 -100,-103 -97,-147zm517 760c-10,79 -71,133 -170,154l0 -403c131,56 180,166 170,249l0 0z"/>
 </g>
</svg>
