<svg width="56" height="56" viewBox="0 0 56 56" fill="none" xmlns="http://www.w3.org/2000/svg">
<path d="M27.439 18.6663C28.3384 18.4663 29.0076 17.7114 29.0985 16.7946L30.0936 6.75693C30.2022 5.66022 29.4372 4.66892 28.3487 4.49608C26.9719 4.27602 25.5672 4.29959 24.1985 4.56572C15.1717 6.31947 9.89025 18.2192 12.4084 31.1488C14.9196 44.0796 24.2766 53.1355 33.3034 51.3818C34.6636 51.119 35.9669 50.6188 37.1536 49.9041C38.1118 49.3334 38.4566 48.113 37.9387 47.1253L33.2632 38.2088C32.8353 37.3928 31.932 36.9435 31.023 37.0947L24.989 38.0988C24.0268 38.2622 23.0753 37.7575 22.6708 36.8693C21.6319 34.5418 20.864 32.1025 20.3822 29.5996C19.8908 27.0987 19.6885 24.5496 19.7795 22.0025C19.8216 21.0276 20.5148 20.2032 21.468 19.9945L27.439 18.6663Z" fill="#00BE12"/>
</svg>
