<svg width="107" height="101" viewBox="0 0 107 101" fill="none" xmlns="http://www.w3.org/2000/svg">
<path fill-rule="evenodd" clip-rule="evenodd" d="M32.4182 61.0682H46.2237C47.5924 61.0682 48.7103 62.1822 48.7103 63.5461V70.5274C48.7103 71.8914 47.5924 73.0053 46.2237 73.0053H32.4182C31.0508 73.0053 29.9316 71.8914 29.9316 70.5274V63.5461C29.9316 62.1822 31.0508 61.0682 32.4182 61.0682ZM85.7551 19.081L9.75556 39.3743L17.1198 66.7685V43.2256L17.1212 43.1346L17.1225 43.0436L17.1253 42.9539V42.9526L17.1294 42.8643V42.8629L17.1416 42.6849V42.6822L17.1484 42.5953V42.5926C17.3011 40.8944 18.0591 39.3648 19.2056 38.2236L19.2656 38.1638L19.3269 38.1054L19.3896 38.047V38.0457L19.4523 37.9886L19.515 37.9329V37.9315L19.5791 37.8758L19.6445 37.8215V37.8201L19.71 37.7658L19.7754 37.7128L19.8422 37.6598L19.9104 37.6082V37.6069L19.9785 37.5566V37.5552L20.0467 37.505L20.1162 37.4561L20.1857 37.4072V37.4058L20.2566 37.3583L20.3275 37.3107L20.3998 37.2645L20.5456 37.1735C20.6179 37.13 20.6929 37.0866 20.7679 37.0444L20.8428 37.0037V37.0023L20.9178 36.9629L20.9942 36.9235V36.9222L21.1496 36.8461L21.2273 36.8094L21.305 36.7741L21.384 36.7388L21.4631 36.7048V36.7035L21.5435 36.6709L21.7044 36.6084V36.607C22.4883 36.3095 23.3362 36.1465 24.225 36.1465H90.3425L85.7551 19.081ZM7.21583 29.9286L83.2154 9.63531L82.4152 6.65883C82.1848 5.80297 81.311 5.30304 80.4521 5.53263L7.54573 24.9986C6.72915 25.2173 6.14432 26.1397 6.41697 26.9548L7.21583 29.9286ZM96.0367 36.1465H99.7025C103.603 36.1465 106.808 39.339 106.808 43.2256V93.9195C106.808 97.8197 103.616 101 99.7025 101H24.225C20.3275 101 17.1198 97.8048 17.1198 93.9195V85.5565C16.4968 84.7795 16.0401 83.9223 15.777 82.9469L1.1044 28.3704C-0.100711 24.769 2.52354 20.6677 6.12523 19.7045L79.033 0.238548C82.7969 -0.765385 86.7189 1.4938 87.7278 5.24327L96.0367 36.1465ZM24.225 41.6335C24.1364 41.6335 24.0492 41.6403 23.9647 41.6552L23.887 41.6701V41.6715L23.7915 41.6946L23.7343 41.7123L23.6975 41.7245L23.6797 41.7313L23.6429 41.7449V41.7462L23.6252 41.753L23.6075 41.7598L23.572 41.7761L23.5543 41.7843L23.5189 41.8006L23.5012 41.8101L23.4671 41.8277L23.4507 41.8372L23.4344 41.8467L23.418 41.8563L23.4003 41.8658V41.8671L23.3839 41.8766L23.3676 41.8861V41.8875L23.3526 41.897L23.3362 41.9079L23.3198 41.9187L23.3049 41.9296L23.2885 41.9418L23.2735 41.9527L23.2571 41.9649L23.2421 41.9758L23.2271 41.988L23.2122 42.0003L23.1972 42.0125L23.1835 42.0247V42.0261L23.1685 42.0369V42.0383L23.1549 42.0505L23.1399 42.0641L23.1263 42.0763L23.1126 42.0899L23.099 42.1035C22.84 42.3603 22.6682 42.704 22.6328 43.0816V43.0843L22.6314 43.1034V43.1047L22.63 43.1224V43.1251L22.6287 43.1428V43.1455V43.1645L22.6273 43.1849V43.2052V43.2256V93.9195C22.6273 94.8052 23.3376 95.513 24.225 95.513H99.7025C100.576 95.513 101.3 94.7903 101.3 93.9195V43.2256C101.3 42.3426 100.59 41.6335 99.7025 41.6335C74.5438 41.6335 49.3837 41.6335 24.225 41.6335ZM52.5901 84.4589H94.8425V89.7815H52.5901V84.4589ZM61.6557 74.9412H94.8425V80.2652H61.6557V74.9412Z" fill="#F02F2F"/>
</svg>
