<svg width="47" height="46" viewBox="0 0 47 46" fill="none" xmlns="http://www.w3.org/2000/svg">
<rect width="47" height="46" rx="3" fill="#FFCB33"/>
<path fill-rule="evenodd" clip-rule="evenodd" d="M23.4421 34.4489C23.4414 34.4484 23.4407 34.448 23.4398 34.448C23.3508 34.448 23.2598 34.438 23.1698 34.416C16.8038 32.9 14.9938 27.887 14.9258 25.449V16.227C14.9258 15.663 15.3168 15.174 15.8658 15.05C20.6358 13.973 22.5508 12.017 22.5698 11.997C22.5746 11.9917 22.5808 11.9881 22.5873 11.9843C22.5929 11.981 22.5987 11.9777 22.6038 11.973C22.6081 11.9683 22.6113 11.9628 22.6145 11.9572C22.6187 11.95 22.623 11.9427 22.6298 11.937C22.6713 11.8989 22.7195 11.8737 22.7676 11.8486C22.7913 11.8363 22.815 11.8239 22.8378 11.81C22.8552 11.7996 22.8721 11.788 22.8889 11.7764C22.9203 11.7549 22.9516 11.7334 22.9868 11.719C23.0938 11.675 23.2038 11.658 23.3168 11.646C23.3314 11.6441 23.3458 11.641 23.3601 11.6379C23.3828 11.6329 23.4054 11.628 23.4288 11.628C23.5468 11.625 23.6608 11.651 23.7758 11.684C23.7907 11.6883 23.8055 11.6909 23.8203 11.6935C23.8404 11.6971 23.8602 11.7006 23.8798 11.708C23.9898 11.751 24.0868 11.82 24.1828 11.896C24.1952 11.9062 24.2091 11.9133 24.223 11.9205C24.2392 11.9288 24.2553 11.9371 24.2688 11.95C24.2714 11.9527 24.2735 11.9559 24.2755 11.9589C24.2772 11.9616 24.2789 11.9642 24.2808 11.966C24.2876 11.972 24.2949 11.9764 24.302 11.9809C24.3106 11.9862 24.3192 11.9914 24.3268 11.999C24.3688 12.042 26.2898 13.98 31.0298 15.051C31.5788 15.175 31.9698 15.664 31.9698 16.228V25.416C31.9018 27.889 30.0918 32.901 23.7258 34.417C23.6348 34.438 23.5438 34.448 23.4538 34.448C23.4518 34.448 23.4508 34.45 23.4478 34.45H23.4468H23.4458C23.4441 34.45 23.4431 34.4494 23.4421 34.4489ZM17.3368 17.174V25.416C17.3458 25.586 17.6178 30.443 23.4468 31.987C29.3348 30.427 29.5558 25.434 29.5568 25.382V17.174C26.4098 16.338 24.4668 15.162 23.4468 14.4C22.4278 15.162 20.4838 16.337 17.3368 17.174Z" fill="white"/>
<path d="M27.2849 21.639C27.7569 21.168 27.7569 20.404 27.2849 19.932C26.8139 19.461 26.0509 19.461 25.5789 19.932L21.9349 23.575L21.3149 22.955C20.8439 22.484 20.0799 22.484 19.6089 22.955C19.1369 23.426 19.1369 24.19 19.6089 24.662L21.0819 26.136C21.3089 26.363 21.6149 26.49 21.9359 26.49C22.2559 26.49 22.5629 26.363 22.7889 26.136L27.2849 21.639Z" fill="white"/>
</svg>
