<svg width="68" height="67" viewBox="0 0 68 67" fill="none" xmlns="http://www.w3.org/2000/svg">
<rect width="68" height="67" rx="12" fill="white"/>
<path fill-rule="evenodd" clip-rule="evenodd" d="M34.3662 53.3706C34.3651 53.3699 34.364 53.3693 34.3627 53.3693C34.2322 53.3693 34.0987 53.3549 33.9667 53.3231C24.6291 51.131 21.9742 43.8824 21.8745 40.3572V27.0225C21.8745 26.207 22.448 25.4999 23.2532 25.3206C30.2498 23.7633 33.0587 20.9351 33.0866 20.9061C33.0937 20.8984 33.1028 20.8931 33.1123 20.8877C33.1205 20.883 33.129 20.8782 33.1365 20.8714C33.1428 20.8645 33.1475 20.8566 33.1523 20.8486C33.1584 20.8381 33.1646 20.8276 33.1746 20.8194C33.2355 20.7642 33.3063 20.7278 33.3768 20.6916C33.4115 20.6737 33.4463 20.6558 33.4797 20.6357C33.5053 20.6206 33.53 20.6039 33.5547 20.5871C33.6007 20.556 33.6467 20.5249 33.6983 20.5042C33.8552 20.4405 34.0166 20.416 34.1823 20.3986C34.2038 20.3958 34.2249 20.3913 34.2458 20.3868C34.2792 20.3797 34.3123 20.3726 34.3466 20.3726C34.5197 20.3682 34.6869 20.4058 34.8556 20.4536C34.8774 20.4597 34.8992 20.4635 34.9209 20.4673C34.9503 20.4724 34.9794 20.4774 35.0081 20.4883C35.1695 20.5504 35.3117 20.6502 35.4525 20.7601C35.4708 20.7747 35.4912 20.7851 35.5115 20.7954C35.5353 20.8075 35.5589 20.8194 35.5787 20.8382C35.5826 20.842 35.5856 20.8466 35.5885 20.851C35.5911 20.8549 35.5935 20.8586 35.5963 20.8613C35.6063 20.8699 35.6169 20.8763 35.6275 20.8827C35.6401 20.8904 35.6526 20.898 35.6638 20.909C35.7254 20.9712 38.5431 23.7735 45.4957 25.3221C46.3009 25.5014 46.8745 26.2085 46.8745 27.024V40.3095C46.7747 43.8853 44.1198 51.1324 34.7822 53.3245C34.6487 53.3549 34.5153 53.3693 34.3833 53.3693C34.3819 53.3693 34.3809 53.3699 34.3798 53.3706C34.3784 53.3714 34.3769 53.3722 34.3745 53.3722H34.373H34.3715C34.3691 53.3722 34.3676 53.3714 34.3662 53.3706ZM24.8745 28.3155V40.0315C24.8877 40.2732 25.2884 47.1774 33.8745 49.3722C42.5475 47.1547 42.873 40.0571 42.8745 39.9832V28.3155C38.2389 27.1271 35.3769 25.4554 33.8745 24.3722C32.3735 25.4554 29.51 27.1257 24.8745 28.3155Z" fill="#F02F2F"/>
<path d="M39.8706 33.981C40.5531 33.2995 40.5531 32.1941 39.8706 31.5111C39.1895 30.8296 38.0863 30.8296 37.4038 31.5111L32.1347 36.7822L31.2382 35.8852C30.5571 35.2037 29.4524 35.2037 28.7714 35.8852C28.0889 36.5666 28.0889 37.6721 28.7714 38.355L30.9013 40.4878C31.2295 40.8162 31.672 41 32.1361 41C32.5988 41 33.0428 40.8162 33.3695 40.4878L39.8706 33.981Z" fill="#F02F2F"/>
</svg>
