<svg width="31" height="28" viewBox="0 0 31 28" fill="none" xmlns="http://www.w3.org/2000/svg">
<mask id="mask0" mask-type="alpha" maskUnits="userSpaceOnUse" x="1" y="0" width="29" height="28">
<path fill-rule="evenodd" clip-rule="evenodd" d="M1 0.142822H29.9328V28.0001H1V0.142822Z" fill="white"/>
</mask>
<g mask="url(#mask0)">
<path fill-rule="evenodd" clip-rule="evenodd" d="M9.92371 2.14294C6.09654 2.14294 2.9836 5.28396 2.9836 9.14378V18.9989C2.9836 22.8592 6.09654 25.9998 9.92371 25.9998H21.01C24.8368 25.9998 27.9497 22.8592 27.9497 18.9989V9.14378C27.9497 5.28396 24.8368 2.14294 21.01 2.14294H9.92371ZM21.01 28.0003H9.92371C5.00366 28.0003 1 23.962 1 18.9989V9.14378C1 4.18026 5.00366 0.142822 9.92371 0.142822H21.01C25.9296 0.142822 29.9329 4.18026 29.9329 9.14378V18.9989C29.9329 23.962 25.9296 28.0003 21.01 28.0003Z" fill="black"/>
</g>
<path fill-rule="evenodd" clip-rule="evenodd" d="M15.0002 7.99739C11.6901 7.99739 8.99703 10.6899 8.99703 14C8.99703 17.3101 11.6901 20.003 15.0002 20.003C18.3099 20.003 21.003 17.3101 21.003 14C21.003 10.6899 18.3099 7.99739 15.0002 7.99739ZM15.0002 22C10.5885 22 7 18.4112 7 14C7 9.5888 10.5885 6 15.0002 6C19.4115 6 23 9.5888 23 14C23 18.4112 19.4115 22 15.0002 22Z" fill="black"/>
<path fill-rule="evenodd" clip-rule="evenodd" d="M25 6.0005C25 7.10508 24.1051 8 23.0005 8C21.8954 8 21 7.10508 21 6.0005C21 4.89542 21.8954 4 23.0005 4C24.1051 4 25 4.89542 25 6.0005Z" fill="black"/>
</svg>
