<svg width="21" height="21" viewBox="0 0 21 21" fill="none" xmlns="http://www.w3.org/2000/svg">
<path fill-rule="evenodd" clip-rule="evenodd" d="M14.9845 13.7621L21 19.7824L19.8205 21L13.805 14.9627C10.3499 17.84 5.2537 17.4926 2.21797 14.173C-0.817767 10.8533 -0.726465 5.72776 2.42556 2.51915C5.57758 -0.689461 10.6829 -0.853783 14.0333 2.14553C17.3837 5.14485 17.802 10.254 14.9845 13.7621ZM3.96648 3.96648C1.42772 6.50525 1.33558 10.5921 3.75733 13.2427C6.40794 15.6644 10.4948 15.5723 13.0335 13.0335C15.5723 10.4948 15.6644 6.40794 13.2427 3.75733C10.5921 1.33558 6.50525 1.42772 3.96648 3.96648Z" fill="#627685"/>
</svg>
