<svg width="33" height="26" viewBox="0 0 33 26" fill="none" xmlns="http://www.w3.org/2000/svg">
<mask id="mask0" mask-type="alpha" maskUnits="userSpaceOnUse" x="0" y="0" width="33" height="26">
<path fill-rule="evenodd" clip-rule="evenodd" d="M0.941406 0.186523H32.8263V26H0.941406V0.186523Z" fill="white"/>
</mask>
<g mask="url(#mask0)">
<path fill-rule="evenodd" clip-rule="evenodd" d="M30.485 3.84169C29.7929 4.0329 29.2478 4.00311 29.2478 4.00311L29.2701 3.87202C29.9139 3.35636 31.5388 1.7774 31.7531 1.03857C31.8464 0.718982 31.7363 0.609023 31.7346 0.598732L29.6611 1.4784L27.925 2.26057C26.7269 0.993607 24.9127 0.186523 22.8853 0.186523C19.2769 0.186523 16.3513 2.73994 16.3513 5.88973C16.3513 6.46552 16.4375 7.5169 16.6182 8.04123C16.6182 8.20644 16.6252 7.87548 16.6182 8.04123C14.2946 7.97731 11.3159 7.02561 8.66371 5.68336C3.43198 3.03623 3.10493 1.20377 3.10493 1.20377C2.28269 2.07477 1.85856 4.96023 2.6911 7.22277C3.22534 8.67065 5.05802 9.97065 5.05802 9.97065C5.05802 9.97065 4.23849 9.98636 3.37937 9.69656C2.5208 9.40623 2.197 9.11861 2.197 9.11861C1.68554 10.3628 2.71063 12.5831 4.48093 14.1756C5.51198 15.1051 7.39727 15.6874 7.39727 15.6874L4.45273 15.7697C4.2873 18.6286 10.4546 20.3268 10.4546 20.3268C8.6469 21.7145 6.54954 22.5606 4.30195 22.5606C3.13639 22.5606 2.01042 22.3862 0.941406 22.0677C3.91198 24.5117 7.7292 26.1984 11.88 25.9812C22.8918 25.4038 29.1085 15.9501 29.4035 6.6654L29.4182 6.6849C29.4182 6.6849 29.9339 6.42761 31.0377 5.32586C32.1398 4.22411 32.8264 2.93494 32.8264 2.93494C32.8264 2.93494 31.1771 3.65102 30.485 3.84169Z" fill="black"/>
</g>
<path fill-rule="evenodd" clip-rule="evenodd" d="M31.7358 0.59904C31.7434 0.77454 31.7358 0.615832 31.7358 0.59904V0.59904Z" fill="white"/>
</svg>
