<svg width="41" height="40" viewBox="0 0 41 40" fill="none" xmlns="http://www.w3.org/2000/svg">
<mask id="mask0" mask-type="alpha" maskUnits="userSpaceOnUse" x="0" y="0" width="41" height="40">
<path fill-rule="evenodd" clip-rule="evenodd" d="M0.916504 0.402344H40.5146V39.9996H0.916504V0.402344Z" fill="white"/>
</mask>
<g mask="url(#mask0)">
<path fill-rule="evenodd" clip-rule="evenodd" d="M11.1959 34.1036L11.7928 34.4772C14.482 36.1633 17.5676 37.0544 20.7153 37.0544C30.0088 37.0544 37.5688 29.4938 37.5688 20.2003C37.5688 10.9086 30.0088 3.34795 20.7153 3.34795C11.4223 3.34795 3.86235 10.9086 3.86235 20.2003C3.86235 23.9818 5.1005 27.5639 7.44266 30.5603L7.85558 31.0895L6.98973 35.5523L11.1959 34.1036ZM20.7153 39.9996C17.25 39.9996 13.85 39.0827 10.8402 37.3424L3.12697 39.9996L4.71158 31.831C2.22666 28.4243 0.916504 24.4187 0.916504 20.2003C0.916504 9.28333 9.79835 0.4021 20.7153 0.4021C31.6328 0.4021 40.5147 9.28333 40.5147 20.2003C40.5147 31.1178 31.6328 39.9996 20.7153 39.9996Z" fill="black"/>
</g>
<path fill-rule="evenodd" clip-rule="evenodd" d="M9.53767 13.2486C9.53767 13.2486 10.7435 11.1792 11.7269 11.0613C12.7104 10.9421 13.9769 10.9421 14.3181 11.573C14.6594 12.2038 16.186 15.8705 16.186 15.8705C16.186 15.8705 16.446 16.5014 16.0447 17.1115C15.6434 17.723 14.7405 18.6097 14.7405 18.6097C14.7405 18.6097 14.2376 19.2406 14.7405 19.9103C15.2421 20.5794 16.0211 21.8117 17.6321 23.392C19.2411 24.9723 22.3314 26.0992 22.3314 26.0992C22.3314 26.0992 22.7729 26.1581 23.0541 25.8822C23.3352 25.6057 24.8619 23.7338 24.8619 23.7338C24.8619 23.7338 25.3533 23.1129 26.1674 23.4779C26.9802 23.8429 30.5043 25.5668 30.5043 25.5668C30.5043 25.5668 30.9165 25.7148 30.9165 26.3256C30.9165 26.9364 30.6647 28.4314 30.1497 28.9368C29.6346 29.4423 28.1285 31 25.8657 31C23.6024 31 18.2136 29.1927 15.3418 26.3757C12.4701 23.5563 9.9198 20.6986 9.31722 18.0967C8.71463 15.4955 8.7945 14.3203 9.53767 13.2486Z" fill="black"/>
</svg>
