<svg width="47" height="46" viewBox="0 0 47 46" fill="none" xmlns="http://www.w3.org/2000/svg">
<rect width="47" height="46" rx="3" fill="#B140BC"/>
<path fill-rule="evenodd" clip-rule="evenodd" d="M23.4421 34.4488C23.4414 34.4483 23.4407 34.4479 23.4398 34.4479C23.3508 34.4479 23.2598 34.4379 23.1698 34.4159C16.8038 32.8999 14.9938 27.8869 14.9258 25.4489V16.2269C14.9258 15.6629 15.3168 15.1739 15.8658 15.0499C20.6358 13.9729 22.5508 12.0169 22.5698 11.9969C22.5746 11.9916 22.5808 11.9879 22.5873 11.9842C22.5929 11.9809 22.5987 11.9776 22.6038 11.9729C22.6081 11.9682 22.6113 11.9626 22.6145 11.9571C22.6187 11.9499 22.623 11.9426 22.6298 11.9369C22.6713 11.8988 22.7195 11.8736 22.7676 11.8485C22.7913 11.8361 22.815 11.8238 22.8378 11.8099C22.8552 11.7994 22.8721 11.7879 22.8889 11.7763C22.9203 11.7548 22.9516 11.7332 22.9868 11.7189C23.0938 11.6749 23.2038 11.6579 23.3168 11.6459C23.3314 11.644 23.3458 11.6409 23.3601 11.6378C23.3828 11.6328 23.4054 11.6279 23.4288 11.6279C23.5468 11.6249 23.6608 11.6509 23.7758 11.6839C23.7907 11.6882 23.8055 11.6908 23.8203 11.6934C23.8404 11.6969 23.8602 11.7004 23.8798 11.7079C23.9898 11.7509 24.0868 11.8199 24.1828 11.8959C24.1952 11.906 24.2091 11.9132 24.223 11.9203C24.2392 11.9287 24.2553 11.937 24.2688 11.9499C24.2714 11.9526 24.2735 11.9558 24.2755 11.9588C24.2772 11.9615 24.2789 11.964 24.2808 11.9659C24.2876 11.9718 24.2949 11.9763 24.302 11.9807C24.3106 11.986 24.3192 11.9913 24.3268 11.9989C24.3688 12.0419 26.2898 13.9799 31.0298 15.0509C31.5788 15.1749 31.9698 15.6639 31.9698 16.2279V25.4159C31.9018 27.8889 30.0918 32.9009 23.7258 34.4169C23.6348 34.4379 23.5438 34.4479 23.4538 34.4479C23.4518 34.4479 23.4508 34.4499 23.4478 34.4499H23.4468H23.4458C23.4441 34.4499 23.4431 34.4493 23.4421 34.4488ZM17.3368 17.1739V25.4159C17.3458 25.5859 17.6178 30.4429 23.4468 31.9869C29.3348 30.4269 29.5558 25.4339 29.5568 25.3819V17.1739C26.4098 16.3379 24.4668 15.1619 23.4468 14.3999C22.4278 15.1619 20.4838 16.3369 17.3368 17.1739Z" fill="white"/>
<path d="M27.2849 21.6391C27.7569 21.1681 27.7569 20.4041 27.2849 19.9321C26.8139 19.4611 26.0509 19.4611 25.5789 19.9321L21.9349 23.5751L21.3149 22.9551C20.8439 22.4841 20.0799 22.4841 19.6089 22.9551C19.1369 23.4261 19.1369 24.1901 19.6089 24.6621L21.0819 26.1361C21.3089 26.3631 21.6149 26.4901 21.9359 26.4901C22.2559 26.4901 22.5629 26.3631 22.7889 26.1361L27.2849 21.6391Z" fill="white"/>
</svg>
