<svg width="175" height="60" viewBox="0 0 175 60" fill="none" xmlns="http://www.w3.org/2000/svg">
<path fill-rule="evenodd" clip-rule="evenodd" d="M12 0C5.37259 0 0 5.37258 0 12V48C0 54.6274 5.37258 60 12 60H163C169.627 60 175 54.6274 175 48V12C175 5.37258 169.627 0 163 0H12Z" fill="black"/>
<path fill-rule="evenodd" clip-rule="evenodd" d="M14.0948 24.8206C13.6018 24.9768 13.2827 25.4824 13.2827 26.2475L13.2858 50.3247C13.2858 51.0812 13.5949 51.5792 14.0743 51.7454L27.3722 38.2722L14.0948 24.8206Z" fill="url(#paint0_linear)"/>
<path fill-rule="evenodd" clip-rule="evenodd" d="M14.0742 51.7454C14.4191 51.8639 14.8514 51.8085 15.3223 51.5469L31.5503 42.5052L27.3721 38.2722L14.0742 51.7454Z" fill="url(#paint1_linear)"/>
<path fill-rule="evenodd" clip-rule="evenodd" d="M31.5525 42.5052L37.0859 39.4228C38.2079 38.7956 38.2079 37.7751 37.0859 37.1493L31.532 34.0554L27.3721 38.2699L31.5525 42.5052Z" fill="url(#paint2_linear)"/>
<path fill-rule="evenodd" clip-rule="evenodd" d="M31.5315 34.0556L15.3226 25.0263C14.863 24.7715 14.4391 24.7123 14.0957 24.8208L27.3724 38.2701L31.5315 34.0556Z" fill="url(#paint3_linear)"/>
<path fill-rule="evenodd" clip-rule="evenodd" d="M106.256 44.0633C105.41 43.9821 105.231 43.8213 105.231 42.7878L105.238 27.6997C105.34 26.7686 105.579 26.4777 106.376 26H102.695L100.767 26.9602H102.77L102.78 42.7775V43.3712C102.78 43.8515 102.696 43.9627 102.241 44.569C102.192 44.6334 102.14 44.7034 102.083 44.7799H106.619L107.571 44.1942C107.352 44.1672 107.131 44.1477 106.91 44.1282L106.91 44.1282L106.91 44.1282L106.91 44.1282L106.91 44.1282L106.909 44.1282L106.909 44.1282L106.909 44.1282L106.909 44.1282C106.692 44.1091 106.474 44.0899 106.256 44.0633ZM60.6259 44.2005L57.1752 45.0172C55.777 45.2451 54.5215 45.4453 53.192 45.4453C46.5362 45.4453 44 40.3818 44 36.4188C44 31.5791 47.5934 27.0919 53.7473 27.0919C55.0494 27.0919 56.3018 27.2897 57.4429 27.6114C59.1683 28.1123 60.0175 28.7244 60.5509 29.1089L60.6259 29.1628L58.6214 31.1305L57.7762 31.3261L58.3788 30.3335L58.3735 30.3282C57.5562 29.5031 56.0561 27.989 53.2149 27.989C49.408 27.989 46.5362 30.98 46.5362 35.3466C46.5362 40.0365 49.8153 44.448 55.0745 44.448C56.6199 44.448 57.4155 44.1272 58.1378 43.8276V39.8071L54.4941 40.0097L56.4254 38.9375H61.5389L60.9135 39.5595C60.7449 39.7077 60.722 39.7582 60.6747 39.9568C60.6496 40.1839 60.6259 40.906 60.6259 41.1599V44.2005ZM68.5396 45.1237C64.4474 45.1237 62.262 41.8307 62.262 38.8492C62.262 35.3655 65.0149 32.3848 68.9278 32.3848C72.7096 32.3848 75.0772 35.4467 75.0772 38.6616C75.0772 41.8016 72.7378 45.1237 68.5396 45.1237ZM72.5311 40.0215C72.5311 41.0574 72.377 42.1201 71.7592 42.9715C71.165 43.8213 70.1391 44.3251 69.1345 44.3251C66.0202 44.3251 64.7578 39.99 64.7578 37.3616C64.7578 36.2138 64.9363 35.0439 65.9431 34.1129C66.561 33.5531 67.4069 33.2102 68.2589 33.2102C71.448 33.2102 72.5311 37.6785 72.5311 40.0215ZM82.238 45.1237C78.1466 45.1237 75.9574 41.8307 75.9574 38.8492C75.9574 35.3655 78.7095 32.3848 82.624 32.3848C86.408 32.3848 88.7779 35.4467 88.7779 38.6616C88.7779 41.8016 86.4355 45.1237 82.238 45.1237ZM86.2303 40.0215C86.2303 41.0574 86.0793 42.1201 85.4569 42.9715C84.8642 43.8213 83.8368 44.3251 82.8299 44.3251C79.7102 44.3251 78.4532 39.99 78.4532 37.3616C78.4532 36.2138 78.6324 35.0439 79.6378 34.1129C80.2541 33.5531 81.1091 33.2102 81.9581 33.2102C85.1502 33.2102 86.2303 37.6785 86.2303 40.0215ZM98.1965 33.6903C98.7877 34.1925 100.021 35.2583 100.021 37.2796C100.021 39.2497 98.9463 40.1784 97.8624 41.0574L97.8162 41.1054C97.4949 41.4384 97.1409 41.8054 97.1409 42.3589C97.1409 42.9368 97.5154 43.255 97.7939 43.4917L97.8098 43.5052L98.7396 44.247C99.87 45.2332 100.901 46.1375 100.901 47.9743C100.901 50.4765 98.5573 53 94.1295 53C90.3996 53 88.5964 51.1639 88.5964 49.1955C88.5964 48.2376 89.0579 46.8809 90.5803 45.9514C92.1549 44.9565 94.2806 44.812 95.4491 44.7326L95.4956 44.7295L95.4417 44.6579C95.0943 44.1964 94.7214 43.701 94.7214 42.9171C94.7214 42.5136 94.8264 42.256 94.9392 41.9792L94.965 41.9156L94.9792 41.8804L94.9612 41.8822C94.6856 41.9092 94.4085 41.9364 94.1562 41.9364C91.4262 41.9364 89.8832 39.8315 89.8832 37.7574C89.8832 36.5339 90.4232 35.1763 91.5323 34.1925C92.9998 32.9437 94.7496 32.7285 96.1401 32.7285H101.444L99.7953 33.6903H98.1965ZM95.7801 45.4721C96.0348 45.4721 96.1615 45.4721 96.3728 45.5005C98.3254 46.9392 99.1744 47.655 99.1744 49.0118C99.1744 50.6602 97.8624 51.8845 95.3911 51.8845C92.6406 51.8845 90.8626 50.5246 90.8626 48.6389C90.8626 46.7492 92.5094 46.113 93.0791 45.8978C94.1562 45.5241 95.5467 45.4721 95.7801 45.4721ZM97.1126 40.4456C97.7076 39.8315 97.7595 38.9832 97.7595 38.5016C97.7595 36.5883 96.6557 33.6083 94.5162 33.6083C93.8488 33.6083 93.1257 33.9544 92.7153 34.4897C92.2798 35.0439 92.1493 35.7629 92.1493 36.4542C92.1493 38.2359 93.1547 41.1906 95.3659 41.1906C96.0112 41.1906 96.7053 40.8666 97.1126 40.4456ZM117.883 42.9935L116.652 44.1942C116.558 44.248 116.463 44.3046 116.369 44.3612L116.369 44.3614L116.368 44.3614C116.179 44.4748 115.991 44.5878 115.803 44.6767C114.948 45.0779 114.078 45.1788 113.305 45.1788C112.483 45.1788 111.194 45.1237 109.879 44.1406C108.052 42.8107 107.254 40.5245 107.254 38.5323C107.254 34.4077 110.502 32.3848 113.152 32.3848C114.078 32.3848 115.029 32.6245 115.803 33.1298C117.074 33.9987 117.413 35.1249 117.599 35.7416L117.606 35.7629L111.555 38.2895L109.573 38.4487C110.215 41.8307 112.428 43.7977 114.874 43.7977C116.096 43.7977 117.003 43.3854 117.835 42.9604C117.835 42.9604 118.002 42.8706 117.883 42.9935ZM114.98 35.5524C114.98 35.9229 114.724 36.0821 114.233 36.2666L109.547 38.3683C109.538 38.205 109.526 38.0416 109.515 37.8794L109.515 37.8784V37.8784V37.8783V37.8782V37.8781V37.878V37.8779C109.492 37.5663 109.469 37.259 109.469 36.9643C109.469 34.09 111.4 33.2622 112.428 33.2622C113.816 33.2622 114.98 34.4897 114.98 35.5524ZM125.303 43.1071V49.8829H124.001V32.641H125.303V34.6048C126.151 33.3355 127.701 32.3296 129.501 32.3296C132.73 32.3296 134.904 34.861 134.904 38.8681C134.904 42.8485 132.73 45.4327 129.501 45.4327C127.802 45.4327 126.279 44.5269 125.303 43.1071ZM129.281 33.5445C131.982 33.5445 133.506 35.848 133.506 38.8681C133.506 41.893 131.982 44.2163 129.281 44.2163C127.604 44.2163 126 42.8043 125.303 41.6139V36.0947C126 34.9067 127.604 33.5445 129.281 33.5445ZM136.682 27.8802H137.984V45.1221H136.682V27.8802ZM148.59 43.9522C148.638 44.2707 148.704 44.6522 148.791 45.085H150.291C150.174 44.6822 150.086 44.2659 150.032 43.8489C149.978 43.4327 149.958 43.0054 149.958 42.5631V36.4061C149.958 35.088 149.524 34.0797 148.659 33.3821C147.793 32.6773 146.644 32.3241 145.225 32.3241C143.801 32.3241 142.643 32.6828 141.76 33.3962C140.873 34.1105 140.456 34.9375 140.504 35.8803L140.531 35.9473H141.864C141.864 35.2481 142.167 34.6678 142.768 34.1996C143.374 33.7408 144.17 33.505 145.152 33.505C146.226 33.505 147.054 33.7628 147.645 34.2729C148.233 34.7822 148.527 35.4846 148.527 36.3778V37.9284H145.491C143.863 37.9284 142.548 38.2753 141.531 38.973C140.513 39.6675 140.003 40.5757 140.003 41.6944C140.003 42.8146 140.355 43.6999 141.055 44.3534C141.758 45.0078 142.743 45.3302 144.011 45.3302C145.064 45.3302 145.833 45.111 146.641 44.664C147.449 44.2202 148.081 43.6565 148.527 42.9794C148.527 43.3097 148.55 43.6345 148.59 43.9522ZM144.17 44.1043C145.276 44.1043 146.071 43.8489 146.884 43.3436C147.691 42.8414 148.24 42.1863 148.527 41.3932V38.9966H145.476C144.311 38.9966 143.346 39.2631 142.587 39.8008C141.826 40.3368 141.441 40.9856 141.441 41.7401C141.441 42.452 141.685 43.0211 142.171 43.4524C142.657 43.8883 143.322 44.1043 144.17 44.1043ZM153.649 48.9755C153.347 48.9755 152.872 48.8967 152.594 48.7682L152.37 50.0098C152.695 50.1131 153.25 50.1903 153.671 50.1903C155.074 50.1903 156.095 49.4359 156.745 47.8671L163 32.641H161.527L157.17 43.547L152.771 32.641H151.318L156.447 45.2261L155.497 47.4501C154.999 48.6389 154.445 48.9755 153.649 48.9755Z" fill="white"/>
<path fill-rule="evenodd" clip-rule="evenodd" d="M48.3653 9C45.9454 9 44 10.7592 44 13.4939C44 16.2164 45.9454 18 48.3653 18C49.7996 18 50.9722 17.3621 51.7824 16.4109V13.1676H47.8417V14.5094H50.3356V15.8511C49.9617 16.2286 49.2137 16.6322 48.3653 16.6322C46.7198 16.6322 45.4966 15.3035 45.4966 13.4939C45.4966 11.6574 46.7198 10.3556 48.3653 10.3556C49.2877 10.3556 50.0739 10.8625 50.5226 11.5142L51.7076 10.7974C51.0462 9.80797 49.9866 9 48.3653 9ZM53.5868 9.14321V17.8308H59.2859V16.489H55.0453V14.0667H59.1987V12.725H55.0453V10.4858H59.2859V9.14321H53.5868ZM63.3232 17.8308V10.4858H60.8044V9.14321H67.3013V10.4858H64.7825V17.8308H63.3232ZM73.8309 9.14321H72.3725V17.8308H73.8309V9.14321ZM77.8947 17.8308V10.4858H75.3759V9.14321H81.8728V10.4858H79.354V17.8308H77.8947ZM90.8356 9C88.3401 9 86.5825 10.9015 86.5825 13.4939C86.5825 16.0854 88.3401 17.987 90.8356 17.987C93.3162 17.987 95.0879 16.0854 95.0879 13.4939C95.0879 10.9015 93.3162 9 90.8356 9ZM93.5912 13.4939C93.5912 11.6965 92.5059 10.3556 90.8356 10.3556C89.1511 10.3556 88.0791 11.6965 88.0791 13.4939C88.0791 15.2775 89.1511 16.6322 90.8356 16.6322C92.5059 16.6322 93.5912 15.2775 93.5912 13.4939ZM98.2502 11.6184L102.591 17.8308H104V9.14321H102.541V15.1611L98.2884 9.14321H96.7918V17.8308H98.2502V11.6184Z" fill="white"/>
<defs>
<linearGradient id="paint0_linear" x1="13.2827" y1="24.8206" x2="13.2827" y2="51.7454" gradientUnits="userSpaceOnUse">
<stop stop-color="#1E79AF"/>
<stop offset="1" stop-color="#63FFD3"/>
</linearGradient>
<linearGradient id="paint1_linear" x1="21.7043" y1="34.8497" x2="11.3763" y2="48.6308" gradientUnits="userSpaceOnUse">
<stop stop-color="#DC4057"/>
<stop offset="1" stop-color="#9E36BB"/>
</linearGradient>
<linearGradient id="paint2_linear" x1="27.4868" y1="34.0554" x2="27.4868" y2="42.3215" gradientUnits="userSpaceOnUse">
<stop stop-color="#FF9676"/>
<stop offset="1" stop-color="#FFD074"/>
</linearGradient>
<linearGradient id="paint3_linear" x1="8.41922" y1="30.3421" x2="18.722" y2="46.4588" gradientUnits="userSpaceOnUse">
<stop stop-color="#51C6AD"/>
<stop offset="1" stop-color="#D5FFA1"/>
</linearGradient>
</defs>
</svg>
